<svg xmlns="http://www.w3.org/2000/svg" width="1440" height="820" viewBox="0 0 1440 820" fill="none">
  <defs>
    <linearGradient id="bg" x1="0" y1="0" x2="1" y2="1">
      <stop stop-color="#0B1220"/>
      <stop offset="1" stop-color="#111827"/>
    </linearGradient>
    <linearGradient id="hero" x1="0" y1="0" x2="1" y2="1">
      <stop stop-color="#4F46E5"/>
      <stop offset="0.52" stop-color="#7C3AED"/>
      <stop offset="1" stop-color="#0EA5E9"/>
    </linearGradient>
    <filter id="shadow" x="-20%" y="-20%" width="140%" height="140%">
      <feDropShadow dx="0" dy="24" stdDeviation="28" flood-color="#020617" flood-opacity="0.45"/>
    </filter>
  </defs>
  <rect width="1440" height="820" rx="34" fill="url(#bg)"/>
  <rect x="36" y="34" width="1368" height="752" rx="26" fill="#F8FAFC" filter="url(#shadow)"/>
  <rect x="36" y="34" width="1368" height="64" rx="26" fill="#0F172A"/>
  <circle cx="74" cy="66" r="8" fill="#EF4444"/><circle cx="100" cy="66" r="8" fill="#F59E0B"/><circle cx="126" cy="66" r="8" fill="#22C55E"/>
  <text x="178" y="73" fill="#F8FAFC" font-family="Arial, sans-serif" font-size="22" font-weight="700">WonderBuild</text>
  <rect x="1070" y="50" width="120" height="34" rx="10" fill="#1E293B"/><text x="1098" y="72" fill="#CBD5E1" font-family="Arial" font-size="14">Preview</text>
  <rect x="1202" y="50" width="156" height="34" rx="10" fill="#2563EB"/><text x="1250" y="72" fill="white" font-family="Arial" font-size="14" font-weight="700">Publish</text>
  <rect x="36" y="98" width="230" height="688" fill="#111827"/>
  <text x="68" y="144" fill="#94A3B8" font-family="Arial" font-size="13" font-weight="700">PROJECT</text>
  <g fill="#E2E8F0" font-family="Arial" font-size="17">
    <text x="74" y="194">Pages</text><text x="74" y="242">Components</text><text x="74" y="290">Assets</text><text x="74" y="338">AI Tools</text><text x="74" y="386">Design</text><text x="74" y="434">Settings</text>
  </g>
  <rect x="54" y="160" width="194" height="50" rx="12" fill="#1D4ED8" fill-opacity="0.28" stroke="#2563EB"/>
  <circle cx="72" cy="185" r="6" fill="#60A5FA"/>
  <rect x="266" y="98" width="886" height="688" fill="#E2E8F0"/>
  <rect x="298" y="128" width="822" height="626" rx="20" fill="white"/>
  <rect x="330" y="162" width="758" height="448" rx="22" fill="url(#hero)"/>
  <circle cx="978" cy="232" r="84" fill="#FFFFFF" fill-opacity="0.08"/><circle cx="438" cy="510" r="120" fill="#FFFFFF" fill-opacity="0.06"/>
  <text x="410" y="330" fill="white" font-family="Arial" font-size="56" font-weight="800">Build Without Limits</text>
  <text x="472" y="382" fill="#DBEAFE" font-family="Arial" font-size="24">Create websites and apps with AI</text>
  <rect x="612" y="430" width="190" height="54" rx="14" fill="white"/><text x="666" y="464" fill="#1D4ED8" font-family="Arial" font-size="18" font-weight="700">Get Started</text>
  <rect x="330" y="638" width="230" height="82" rx="16" fill="#F8FAFC" stroke="#CBD5E1"/><rect x="580" y="638" width="230" height="82" rx="16" fill="#F8FAFC" stroke="#CBD5E1"/><rect x="830" y="638" width="258" height="82" rx="16" fill="#F8FAFC" stroke="#CBD5E1"/>
  <text x="358" y="674" fill="#0F172A" font-family="Arial" font-size="17" font-weight="700">Hero section</text><text x="358" y="699" fill="#64748B" font-family="Arial" font-size="13">Selected on canvas</text>
  <text x="608" y="674" fill="#0F172A" font-family="Arial" font-size="17" font-weight="700">AI edit</text><text x="608" y="699" fill="#64748B" font-family="Arial" font-size="13">Change with a prompt</text>
  <text x="858" y="674" fill="#0F172A" font-family="Arial" font-size="17" font-weight="700">Responsive</text><text x="858" y="699" fill="#64748B" font-family="Arial" font-size="13">Desktop · Tablet · Mobile</text>
  <rect x="1152" y="98" width="252" height="688" fill="#F8FAFC"/>
  <text x="1182" y="146" fill="#0F172A" font-family="Arial" font-size="18" font-weight="700">Properties</text>
  <g fill="#64748B" font-family="Arial" font-size="13"><text x="1182" y="194">Layout</text><text x="1182" y="286">Spacing</text><text x="1182" y="378">Typography</text><text x="1182" y="470">Background</text></g>
  <g fill="#E2E8F0"><rect x="1182" y="208" width="192" height="46" rx="10"/><rect x="1182" y="300" width="192" height="46" rx="10"/><rect x="1182" y="392" width="192" height="46" rx="10"/><rect x="1182" y="484" width="192" height="46" rx="10"/></g>
</svg>